<svg id="svg" version="1.1" width="271" height="203" xmlns="http://www.w3.org/2000/svg"><path d="M75.527 4.567 C 74.539 7.154,71.399 11.599,68.283 14.817 C 61.432 21.897,53.682 33.212,50.904 40.193 C 44.773 55.597,42.354 67.865,45.110 69.568 C 45.770 69.976,45.991 71.665,45.656 73.730 C 45.241 76.287,45.624 77.925,47.103 79.926 C 48.849 82.286,49.152 84.468,49.405 96.450 C 49.658 108.507,49.446 110.771,47.728 114.326 C 46.530 116.807,46.101 118.853,46.631 119.564 C 49.503 123.416,55.214 132.504,57.079 136.189 C 60.370 142.690,72.772 162.777,77.177 168.739 C 79.740 172.209,80.570 174.000,79.615 174.000 C 78.818 174.000,77.218 172.762,76.059 171.250 L 73.950 168.500 75.326 172.000 C 76.431 174.812,77.199 175.466,79.234 175.328 C 82.176 175.128,83.900 178.337,86.546 188.940 C 88.124 195.264,91.471 203.000,92.629 203.000 C 93.475 203.000,92.006 197.622,90.988 196.993 C 90.519 196.702,89.230 193.098,88.125 188.983 C 85.670 179.840,83.732 175.136,81.328 172.483 C 78.513 169.376,72.616 160.246,68.422 152.500 C 66.338 148.650,63.427 143.831,61.954 141.791 C 60.481 139.751,58.686 136.601,57.964 134.791 C 57.242 132.981,55.821 130.294,54.807 128.820 C 53.656 127.147,53.346 125.904,53.982 125.511 C 54.542 125.165,54.993 124.346,54.985 123.691 C 54.975 122.950,54.624 123.046,54.054 123.947 C 53.299 125.140,52.783 124.966,51.103 122.947 C 48.925 120.330,48.360 116.514,50.000 115.500 C 50.550 115.160,51.000 113.815,51.000 112.511 C 51.000 110.388,51.294 110.224,53.808 110.945 C 57.570 112.024,62.735 114.734,67.000 117.868 C 73.957 122.980,83.942 132.184,83.724 133.284 C 83.601 133.903,83.950 134.445,84.500 134.490 C 86.489 134.651,100.771 150.653,104.589 157.000 C 107.752 162.256,108.532 164.552,108.666 169.000 C 108.758 172.025,108.903 174.500,108.990 174.500 C 109.076 174.500,109.285 176.075,109.455 178.000 C 109.870 182.717,112.177 187.906,115.367 191.302 C 116.815 192.842,118.000 194.610,118.000 195.231 C 118.000 197.065,120.345 203.000,121.070 203.000 C 121.437 203.000,121.146 200.456,120.423 197.346 C 119.496 193.358,118.209 190.870,116.054 188.903 C 114.374 187.368,113.000 185.277,113.000 184.256 C 113.000 183.235,112.608 181.972,112.129 181.450 C 110.852 180.058,109.933 168.727,110.961 167.063 C 113.045 163.691,133.761 165.590,141.794 169.890 C 142.831 170.445,146.444 171.162,149.824 171.483 C 157.170 172.182,160.006 170.984,167.793 163.891 C 173.095 159.061,179.939 154.386,189.734 148.906 C 195.893 145.460,196.903 144.071,201.761 132.360 C 204.551 125.634,205.460 122.013,205.534 117.325 C 205.587 113.928,206.122 110.553,206.723 109.825 C 210.590 105.131,214.221 95.775,215.581 87.000 C 216.390 81.775,216.971 76.600,216.872 75.500 C 216.575 72.206,218.157 67.678,220.652 64.673 C 223.847 60.827,223.786 54.230,220.490 47.151 C 219.121 44.209,218.000 41.156,218.000 40.367 C 218.000 38.237,213.495 29.741,210.439 26.110 C 208.021 23.236,201.024 19.000,198.695 19.000 C 197.485 19.000,184.091 5.683,181.788 2.191 C 180.659 0.480,180.011 0.068,180.007 1.059 C 180.003 1.916,182.890 5.729,186.422 9.531 C 189.954 13.333,192.580 16.871,192.258 17.392 C 191.933 17.917,192.377 18.069,193.253 17.733 C 194.163 17.384,195.068 17.736,195.386 18.563 C 195.689 19.353,196.531 20.000,197.257 20.000 C 200.914 20.000,211.000 27.010,211.000 29.552 C 211.000 30.214,211.616 31.267,212.370 31.892 C 213.123 32.517,214.516 35.159,215.465 37.764 C 216.414 40.369,218.007 44.321,219.005 46.546 C 221.432 51.961,221.830 54.568,220.176 54.225 C 219.447 54.074,219.141 54.419,219.495 54.992 C 219.849 55.564,220.600 55.747,221.165 55.398 C 221.770 55.024,222.026 55.531,221.787 56.632 C 221.564 57.659,220.769 58.362,220.021 58.194 C 218.926 57.947,218.903 58.178,219.900 59.380 C 220.885 60.567,220.884 61.346,219.896 63.186 C 218.657 65.493,218.650 65.490,217.239 62.000 C 214.125 54.297,208.480 51.374,191.104 48.469 C 178.475 46.357,171.870 46.641,143.245 50.526 C 129.342 52.413,126.008 52.928,124.000 53.497 C 123.175 53.730,121.375 54.135,120.000 54.396 C 118.625 54.657,110.750 56.420,102.500 58.313 C 74.300 64.784,65.365 68.270,56.460 76.276 C 50.115 81.981,50.323 81.906,48.429 79.203 C 47.297 77.585,46.921 75.291,47.160 71.451 C 47.347 68.452,47.136 65.998,46.691 65.999 C 46.246 65.999,46.160 65.550,46.500 65.000 C 46.840 64.450,46.653 64.000,46.084 64.000 C 44.865 64.000,45.703 58.695,47.506 55.000 C 48.177 53.625,48.504 51.875,48.233 51.111 C 47.903 50.181,48.165 49.984,49.025 50.515 C 49.831 51.013,50.063 50.910,49.647 50.238 C 49.283 49.650,49.385 48.118,49.873 46.834 C 50.361 45.550,50.884 44.050,51.036 43.500 C 52.789 37.131,61.152 24.401,69.201 15.850 C 73.989 10.763,79.998 -0.000,78.050 -0.000 C 77.622 -0.000,76.487 2.055,75.527 4.567 M181.566 48.894 C 181.262 49.385,182.023 49.785,183.257 49.782 C 189.375 49.765,193.239 50.460,193.700 51.660 C 193.980 52.391,194.660 52.710,195.212 52.369 C 195.828 51.988,195.691 51.419,194.857 50.890 C 193.949 50.315,193.894 50.026,194.691 50.015 C 195.346 50.007,196.160 50.450,196.500 51.000 C 196.840 51.550,198.190 52.000,199.500 52.000 C 200.810 52.000,202.165 52.457,202.510 53.016 C 202.856 53.575,203.526 53.793,204.000 53.500 C 204.474 53.207,205.149 53.432,205.500 54.000 C 205.851 54.568,206.557 54.774,207.069 54.457 C 207.581 54.141,208.000 54.385,208.000 55.000 C 208.000 55.615,208.381 55.883,208.847 55.595 C 210.051 54.851,216.110 61.013,215.363 62.222 C 215.022 62.773,215.338 63.591,216.065 64.040 C 217.128 64.697,217.148 65.380,216.167 67.533 C 215.496 69.005,214.919 73.313,214.883 77.107 C 214.842 81.440,214.446 83.776,213.818 83.387 C 213.208 83.010,212.928 84.082,213.102 86.135 C 213.726 93.505,209.460 104.068,204.819 106.643 C 203.544 107.350,203.063 107.945,203.750 107.965 C 204.438 107.984,205.000 108.502,205.000 109.115 C 205.000 109.796,204.026 109.592,202.500 108.592 C 199.603 106.694,199.138 107.910,201.829 110.345 C 205.039 113.250,204.686 122.011,201.055 129.539 C 199.375 133.023,198.000 136.172,198.000 136.536 C 198.000 138.699,194.536 144.036,193.412 143.605 C 192.692 143.328,191.822 143.986,191.479 145.066 C 191.136 146.145,190.455 146.781,189.964 146.478 C 189.474 146.175,188.202 146.798,187.138 147.862 C 186.074 148.926,183.020 151.051,180.352 152.584 C 177.683 154.118,173.426 157.077,170.891 159.161 C 168.357 161.245,165.994 162.661,165.641 162.308 C 165.289 161.955,164.975 162.304,164.945 163.083 C 164.914 163.863,163.485 165.612,161.768 166.972 C 159.279 168.944,157.367 169.482,152.323 169.628 C 145.530 169.826,142.000 169.254,142.000 167.957 C 142.000 167.511,142.563 166.954,143.250 166.719 C 143.938 166.484,143.519 166.452,142.319 166.647 C 141.120 166.843,138.870 166.506,137.319 165.898 C 135.769 165.290,132.994 164.633,131.154 164.439 C 129.313 164.244,127.288 163.677,126.654 163.179 C 126.019 162.681,124.600 162.390,123.500 162.533 C 112.810 163.921,109.881 163.852,109.261 162.196 C 107.583 157.711,99.577 146.840,93.690 141.052 C 90.083 137.505,87.215 134.332,87.316 134.000 C 87.417 133.669,84.575 130.791,81.000 127.605 C 77.425 124.419,74.350 121.405,74.167 120.906 C 73.983 120.408,73.286 120.000,72.616 120.000 C 71.947 120.000,68.866 117.742,65.770 114.982 C 62.338 111.924,59.879 110.386,59.472 111.045 C 58.608 112.444,53.788 105.995,54.436 104.306 C 54.700 103.619,54.256 102.399,53.450 101.593 C 52.537 100.680,52.365 99.893,52.992 99.505 C 53.547 99.162,54.000 98.432,54.000 97.882 C 54.000 97.332,53.640 97.104,53.201 97.376 C 52.762 97.647,52.495 95.198,52.609 91.932 C 52.725 88.630,52.419 86.241,51.920 86.550 C 51.426 86.854,51.290 86.408,51.616 85.558 C 51.943 84.707,52.581 84.241,53.036 84.522 C 53.490 84.803,54.144 84.575,54.490 84.016 C 55.662 82.120,56.825 82.988,56.544 85.550 C 56.390 86.952,57.520 91.725,59.055 96.157 C 61.318 102.695,62.718 105.029,66.473 108.526 C 70.548 112.321,71.540 112.782,74.762 112.383 C 76.774 112.133,79.182 111.240,80.111 110.399 C 81.397 109.236,81.981 109.161,82.553 110.087 C 82.993 110.798,82.540 111.863,81.462 112.652 C 80.447 113.393,80.127 114.000,80.750 114.000 C 81.373 114.000,82.160 113.550,82.500 113.000 C 83.405 111.535,85.245 111.776,84.412 113.250 C 83.880 114.194,84.009 114.222,84.938 113.365 C 85.910 112.470,85.830 111.571,84.559 109.115 C 82.676 105.472,81.939 105.305,79.523 107.974 C 76.918 110.853,74.492 111.306,71.093 109.548 C 64.185 105.976,57.107 91.890,58.355 84.197 C 59.351 78.060,63.683 72.109,68.820 69.823 C 71.394 68.677,74.281 67.348,75.236 66.870 C 78.126 65.422,81.294 65.792,80.638 67.500 C 80.271 68.456,80.655 69.000,81.698 69.000 C 82.597 69.000,83.037 68.704,82.675 68.342 C 82.313 67.980,82.519 67.080,83.131 66.342 C 83.965 65.337,83.921 65.000,82.956 65.000 C 82.247 65.000,81.900 64.767,82.185 64.482 C 82.469 64.197,84.007 64.645,85.601 65.476 C 88.870 67.181,91.000 67.431,91.000 66.111 C 91.000 65.622,90.438 65.285,89.750 65.361 C 89.063 65.438,88.365 65.050,88.200 64.500 C 87.763 63.040,94.116 61.992,96.304 63.163 C 97.331 63.712,98.433 63.901,98.752 63.581 C 99.072 63.261,98.733 63.000,98.000 63.000 C 95.964 63.000,97.755 61.658,100.276 61.295 C 101.499 61.118,104.300 60.249,106.500 59.362 C 108.700 58.475,112.226 57.804,114.336 57.871 C 116.446 57.938,119.086 57.353,120.201 56.572 C 121.317 55.790,122.859 55.392,123.628 55.687 C 124.396 55.982,125.665 55.693,126.446 55.045 C 128.362 53.455,136.979 52.914,137.070 54.378 C 137.109 54.995,137.527 54.600,138.000 53.500 C 138.473 52.400,138.891 52.089,138.930 52.809 C 138.972 53.598,139.497 53.810,140.250 53.343 C 140.938 52.916,142.625 52.498,144.000 52.414 C 145.375 52.329,146.500 52.143,146.500 52.000 C 146.500 51.856,148.525 51.658,151.000 51.559 C 153.475 51.460,156.503 51.041,157.730 50.629 C 158.956 50.216,163.231 49.711,167.230 49.506 C 173.729 49.174,174.294 49.286,172.559 50.567 C 171.491 51.355,171.127 52.000,171.750 52.000 C 172.373 52.000,173.165 51.543,173.510 50.984 C 173.856 50.425,174.627 50.269,175.224 50.638 C 175.848 51.024,176.023 50.847,175.636 50.219 C 175.216 49.541,176.197 48.977,178.231 48.725 C 180.029 48.502,181.639 48.248,181.809 48.160 C 181.979 48.072,181.869 48.402,181.566 48.894 M125.137 58.894 C 123.986 59.623,123.986 59.829,125.137 60.216 C 125.887 60.468,127.326 60.460,128.335 60.199 C 129.762 59.828,129.873 59.535,128.835 58.877 C 127.170 57.821,126.828 57.823,125.137 58.894 M109.000 59.728 C 108.175 60.042,106.424 61.134,105.109 62.154 C 103.145 63.678,102.429 63.786,101.109 62.755 C 99.715 61.667,99.667 61.714,100.749 63.101 C 101.781 64.424,102.596 64.515,105.441 63.625 C 107.624 62.941,108.448 62.269,107.692 61.789 C 106.593 61.090,109.006 60.504,111.324 60.906 C 111.778 60.985,111.864 60.588,111.515 60.025 C 111.167 59.461,110.796 59.036,110.691 59.079 C 110.586 59.122,109.825 59.415,109.000 59.728 M92.395 68.722 C 92.773 69.394,92.338 71.081,91.427 72.472 C 90.515 73.862,90.200 75.000,90.724 75.000 C 91.249 75.000,92.223 73.807,92.887 72.348 C 93.824 70.292,93.827 69.449,92.901 68.598 C 92.021 67.789,91.888 67.822,92.395 68.722 M71.046 70.740 C 70.246 71.050,68.715 72.119,67.644 73.117 C 66.573 74.115,65.246 74.652,64.694 74.311 C 64.114 73.952,64.003 74.196,64.432 74.889 C 64.839 75.548,64.591 76.855,63.880 77.794 C 63.169 78.732,64.142 78.098,66.044 76.384 C 69.513 73.255,74.000 71.400,74.000 73.094 C 74.000 74.821,78.162 78.152,79.620 77.592 C 80.710 77.174,80.833 76.556,80.098 75.183 C 78.234 71.700,73.972 69.608,71.046 70.740 M97.820 74.513 C 97.140 75.193,99.291 82.000,100.186 82.000 C 100.569 82.000,101.203 81.480,101.595 80.845 C 102.065 80.086,101.828 79.941,100.905 80.420 C 100.132 80.820,100.277 80.510,101.227 79.731 C 102.837 78.409,102.789 78.225,100.511 77.006 C 99.168 76.287,98.304 75.316,98.593 74.849 C 99.167 73.921,98.641 73.692,97.820 74.513 M58.067 79.875 C 56.959 81.945,52.855 83.542,53.594 81.616 C 53.950 80.689,55.949 79.344,58.785 78.123 C 58.942 78.055,58.619 78.844,58.067 79.875 M68.605 80.170 C 68.898 80.645,69.670 80.731,70.319 80.363 C 70.969 79.994,70.600 80.604,69.500 81.718 C 68.400 82.833,67.162 83.550,66.750 83.313 C 65.618 82.662,65.850 85.578,67.161 88.453 C 68.382 91.133,70.630 92.083,69.638 89.500 C 69.195 88.344,69.859 88.000,72.531 88.000 C 75.972 88.000,77.064 86.776,74.845 85.405 C 74.130 84.962,73.962 85.130,74.405 85.845 C 74.874 86.606,74.224 87.000,72.500 87.000 C 70.672 87.000,70.109 86.623,70.633 85.750 C 71.066 85.030,70.598 85.135,69.528 86.000 C 67.786 87.408,67.746 87.362,68.871 85.250 C 69.531 84.013,70.955 83.000,72.035 83.000 C 73.116 83.000,74.000 82.523,74.000 81.941 C 74.000 81.359,74.457 81.165,75.016 81.510 C 75.575 81.856,75.777 82.552,75.464 83.058 C 75.152 83.563,75.613 83.702,76.489 83.366 C 77.365 83.030,77.951 83.215,77.791 83.777 C 77.631 84.340,77.950 84.958,78.500 85.150 C 79.050 85.343,79.644 84.485,79.820 83.246 C 79.996 82.006,79.546 80.796,78.820 80.557 C 76.059 79.648,68.096 79.347,68.605 80.170 M61.402 81.395 C 61.108 82.162,61.020 84.524,61.208 86.645 C 61.525 90.217,61.585 90.114,62.025 85.249 C 62.510 79.890,62.353 78.917,61.402 81.395 M144.000 84.021 C 144.000 84.583,145.137 85.561,146.527 86.194 C 148.505 87.095,149.320 87.059,150.277 86.026 C 151.262 84.963,151.165 84.823,149.779 85.310 C 148.832 85.643,147.402 85.259,146.600 84.458 C 144.890 82.747,144.000 82.598,144.000 84.021 M152.000 87.059 C 152.000 87.641,152.450 87.840,153.000 87.500 C 153.550 87.160,154.000 87.347,154.000 87.915 C 154.000 89.161,159.947 92.386,160.755 91.578 C 161.068 91.265,159.937 90.526,158.242 89.935 C 156.547 89.344,154.913 88.217,154.612 87.430 C 153.976 85.773,152.000 85.493,152.000 87.059 M79.219 88.374 C 77.964 89.050,77.251 89.918,77.635 90.302 C 78.359 91.026,76.607 91.382,74.000 91.041 C 72.960 90.905,73.113 91.319,74.500 92.391 C 77.316 94.567,78.712 94.369,80.571 91.532 C 82.716 88.258,82.100 86.820,79.219 88.374 M180.079 90.309 C 180.036 91.304,179.597 91.869,179.105 91.565 C 178.243 91.032,176.575 93.908,177.316 94.649 C 178.107 95.441,181.172 91.032,180.682 89.808 C 180.350 88.980,180.129 89.164,180.079 90.309 M63.000 91.763 C 63.000 93.957,64.257 96.000,65.607 96.000 C 67.576 96.000,67.335 94.613,65.000 92.500 C 63.900 91.505,63.000 91.173,63.000 91.763 M162.000 91.816 C 162.000 92.838,166.109 94.224,166.873 93.460 C 167.509 92.824,166.875 92.364,164.250 91.557 C 163.009 91.175,162.000 91.292,162.000 91.816 M170.750 92.800 C 167.107 93.241,167.240 94.662,170.977 95.210 C 173.686 95.608,176.000 94.574,176.000 92.967 C 176.000 92.294,175.150 92.267,170.750 92.800 M80.000 94.907 C 80.000 95.667,79.362 95.969,78.477 95.629 C 77.246 95.157,77.151 95.413,77.982 96.967 C 78.548 98.024,79.426 99.145,79.933 99.459 C 81.311 100.310,82.373 95.973,81.099 94.699 C 80.300 93.900,80.000 93.957,80.000 94.907 M199.148 96.793 C 195.940 101.297,196.647 106.037,200.613 106.619 C 203.540 107.049,204.333 105.852,201.928 104.636 C 199.191 103.254,198.631 100.365,200.563 97.606 C 201.969 95.599,202.002 95.597,202.079 97.527 C 202.122 98.612,202.379 98.954,202.650 98.288 C 202.920 97.621,202.726 96.333,202.218 95.426 C 201.419 93.998,201.007 94.181,199.148 96.793 M168.055 99.230 C 166.160 99.741,163.586 99.963,162.335 99.724 C 161.012 99.471,160.314 99.698,160.665 100.268 C 161.259 101.228,170.732 100.602,171.802 99.531 C 172.886 98.447,171.401 98.328,168.055 99.230 M176.485 111.843 C 174.986 114.108,174.202 116.364,174.576 117.337 C 175.364 119.392,177.000 118.520,177.000 116.046 C 177.000 115.036,178.089 113.162,179.420 111.880 C 181.727 109.660,181.956 108.000,179.955 108.000 C 179.445 108.000,177.884 109.729,176.485 111.843 M75.870 114.898 C 76.992 115.609,76.935 115.937,75.557 116.708 C 73.988 117.586,73.993 117.747,75.629 119.075 C 77.013 120.199,77.211 120.212,76.564 119.138 C 76.070 118.318,76.243 117.468,77.000 117.000 C 78.427 116.118,77.495 113.992,75.691 114.015 C 74.903 114.025,74.963 114.324,75.870 114.898 M41.990 119.512 C 40.823 120.918,38.483 122.112,21.000 130.226 C 6.364 137.018,-0.037 140.296,0.427 140.760 C 0.696 141.030,4.648 139.444,9.209 137.236 C 13.769 135.029,20.200 131.989,23.500 130.482 C 38.667 123.553,41.738 121.947,43.464 120.040 C 44.479 118.918,44.845 118.000,44.277 118.000 C 43.710 118.000,42.680 118.680,41.990 119.512 M86.210 121.246 C 86.828 123.306,88.099 125.684,89.035 126.531 C 90.602 127.950,90.697 127.864,90.234 125.444 C 89.868 123.529,89.501 123.180,88.881 124.158 C 88.254 125.148,88.027 124.960,88.015 123.441 C 88.007 122.309,87.345 120.509,86.543 119.441 C 85.235 117.698,85.201 117.881,86.210 121.246 M192.000 118.937 C 189.669 120.210,183.555 122.000,181.539 122.000 C 180.539 122.000,179.123 121.213,178.392 120.250 C 177.165 118.634,177.061 118.629,177.032 120.193 C 177.014 121.125,178.000 122.587,179.223 123.443 C 181.629 125.129,185.479 125.584,184.544 124.072 C 183.938 123.090,187.684 121.453,189.675 121.830 C 190.321 121.953,191.148 121.569,191.514 120.978 C 191.973 120.234,192.690 120.303,193.839 121.201 C 195.289 122.335,195.342 122.298,194.259 120.908 C 193.576 120.032,193.313 119.020,193.675 118.658 C 194.531 117.803,193.878 117.911,192.000 118.937 M193.987 124.868 C 192.606 125.216,191.513 125.950,191.559 126.500 C 191.727 128.507,194.313 132.924,195.052 132.468 C 196.124 131.805,194.987 128.000,193.717 128.000 C 193.139 128.000,193.004 127.662,193.417 127.250 C 194.171 126.496,194.689 126.355,197.559 126.125 C 198.416 126.056,198.840 125.550,198.500 125.000 C 197.834 123.923,197.757 123.921,193.987 124.868 M95.232 131.964 C 94.935 132.809,94.565 133.748,94.410 134.050 C 94.256 134.352,95.196 134.600,96.500 134.600 C 97.804 134.600,98.644 134.233,98.366 133.784 C 98.089 133.335,97.443 133.226,96.931 133.543 C 96.419 133.859,96.000 133.401,96.000 132.524 C 96.000 131.218,96.377 131.131,98.086 132.046 C 99.233 132.660,100.433 132.901,100.752 132.581 C 101.072 132.261,100.782 132.000,100.108 132.000 C 99.434 132.000,99.100 131.646,99.368 131.214 C 99.635 130.782,98.935 130.429,97.813 130.429 C 96.691 130.429,95.530 131.120,95.232 131.964 M187.743 133.552 C 187.104 136.880,187.554 137.846,189.047 136.353 C 189.676 135.724,189.728 134.439,189.185 132.971 C 188.318 130.628,188.303 130.634,187.743 133.552 M180.796 140.820 C 179.331 141.404,179.436 141.663,181.547 142.656 C 182.897 143.293,183.750 143.405,183.442 142.906 C 183.134 142.408,183.359 142.000,183.941 142.000 C 184.523 142.000,185.000 141.550,185.000 141.000 C 185.000 139.876,183.340 139.805,180.796 140.820 M155.500 143.598 C 152.200 145.029,148.713 146.182,147.750 146.162 C 146.787 146.141,146.000 146.507,146.000 146.974 C 146.000 147.441,146.563 147.719,147.250 147.592 C 150.228 147.043,160.526 143.473,160.789 142.899 C 161.303 141.775,167.336 143.509,167.805 144.915 C 168.055 145.665,167.816 146.005,167.275 145.670 C 166.734 145.335,165.337 146.076,164.172 147.317 C 162.162 149.457,162.151 149.571,163.956 149.571 C 165.001 149.571,165.836 149.330,165.810 149.036 C 165.784 148.741,165.848 147.825,165.952 147.000 C 166.087 145.929,166.386 146.072,167.000 147.500 C 167.579 148.847,167.887 149.010,167.945 148.000 C 167.992 147.175,168.423 145.881,168.902 145.125 C 170.102 143.229,174.729 142.853,175.398 144.596 C 175.695 145.368,176.428 146.000,177.028 146.000 C 177.627 146.000,177.840 145.550,177.500 145.000 C 177.160 144.450,177.359 144.000,177.941 144.000 C 178.523 144.000,179.000 144.470,179.000 145.044 C 179.000 145.618,179.563 146.015,180.250 145.925 C 183.358 145.522,184.120 146.057,183.562 148.250 L 182.989 150.500 184.148 148.250 C 184.784 147.012,186.137 146.000,187.153 146.000 C 188.169 146.000,189.000 145.298,189.000 144.441 C 189.000 143.584,189.399 143.129,189.887 143.430 C 190.374 143.731,191.329 143.308,192.009 142.489 C 192.761 141.583,192.838 141.000,192.204 141.000 C 190.040 141.000,188.000 142.265,188.000 143.607 C 188.000 145.408,183.729 145.420,180.200 143.630 C 178.715 142.876,173.900 141.976,169.500 141.629 C 162.296 141.060,160.903 141.256,155.500 143.598 M104.946 146.339 C 108.617 150.238,109.000 150.501,109.000 149.119 C 109.000 148.634,107.313 146.987,105.250 145.458 L 101.500 142.678 104.946 146.339 M110.000 151.257 C 110.000 151.501,112.813 154.121,116.250 157.081 C 119.688 160.040,121.871 161.669,121.102 160.700 C 119.486 158.664,110.000 150.595,110.000 151.257 M161.079 152.250 C 161.036 153.213,161.620 154.000,162.378 154.000 C 163.135 154.000,164.311 154.670,164.991 155.489 C 165.671 156.308,166.647 156.718,167.162 156.400 C 168.518 155.562,166.106 153.000,163.961 153.000 C 162.974 153.000,161.940 152.438,161.662 151.750 C 161.361 151.003,161.126 151.205,161.079 152.250 M38.200 164.200 C 37.540 164.860,37.000 165.776,37.000 166.235 C 37.000 167.744,27.529 178.983,26.250 178.992 C 25.563 178.996,25.000 179.466,25.000 180.035 C 25.000 181.413,27.952 179.816,30.395 177.116 C 31.425 175.978,32.626 175.269,33.065 175.540 C 33.503 175.811,34.187 175.506,34.585 174.862 C 35.037 174.131,34.876 173.959,34.155 174.405 C 32.595 175.368,32.750 173.914,34.445 171.678 C 35.473 170.321,35.939 170.193,36.269 171.178 C 36.513 171.905,36.595 171.713,36.450 170.750 C 36.306 169.787,36.595 169.000,37.094 169.000 C 37.592 169.000,38.000 168.287,38.000 167.417 C 38.000 165.032,39.842 166.123,42.257 169.938 L 44.412 173.341 42.206 172.764 C 40.767 172.388,40.000 172.639,40.000 173.487 C 40.000 174.201,39.325 175.045,38.500 175.362 C 37.675 175.678,37.000 176.415,37.000 176.999 C 37.000 177.582,38.318 177.086,39.928 175.895 C 41.538 174.705,43.549 173.997,44.396 174.322 C 46.571 175.156,47.286 173.482,45.416 171.930 C 44.557 171.217,42.978 168.916,41.907 166.817 C 39.704 162.500,39.819 162.581,38.200 164.200 M62.109 165.588 C 60.024 168.239,58.999 174.401,60.971 172.429 C 61.506 171.894,62.081 170.567,62.250 169.479 C 62.419 168.390,62.951 166.869,63.432 166.099 C 64.153 164.941,64.540 165.018,65.653 166.540 C 67.431 168.972,67.363 170.353,65.500 169.638 C 64.586 169.288,64.000 169.637,64.000 170.531 C 64.000 171.339,64.450 172.000,65.000 172.000 C 65.550 172.000,66.338 172.000,66.750 172.000 C 67.162 172.000,67.500 171.534,67.500 170.964 C 67.500 170.393,68.175 169.500,69.000 168.979 C 69.825 168.457,70.044 168.024,69.487 168.015 C 68.930 168.007,68.030 167.017,67.487 165.815 C 66.046 162.625,64.492 162.559,62.109 165.588 M70.336 164.567 C 70.005 165.429,70.209 166.609,70.789 167.189 C 72.144 168.544,71.277 170.867,68.265 173.950 C 66.245 176.019,65.572 176.214,63.949 175.200 C 61.452 173.641,61.000 173.686,61.000 175.500 C 61.000 176.325,61.419 177.000,61.930 177.000 C 62.442 177.000,63.005 178.012,63.180 179.250 C 63.404 180.824,64.282 181.591,66.101 181.802 C 69.472 182.193,71.850 178.697,71.705 173.562 C 71.629 170.895,72.177 169.317,73.549 168.249 C 75.169 166.989,75.203 166.833,73.750 167.334 C 72.143 167.888,71.441 166.542,71.882 163.750 C 72.099 162.370,70.945 162.981,70.336 164.567 M9.239 172.655 C 8.545 172.940,7.496 174.073,6.909 175.170 C 5.079 178.590,8.281 181.000,14.655 181.000 C 17.595 181.000,20.000 180.550,20.000 180.000 C 20.000 179.450,17.736 179.000,14.969 179.000 C 9.323 179.000,7.494 177.055,10.430 174.172 C 11.645 172.978,12.042 172.893,11.816 173.875 C 11.642 174.631,12.105 175.471,12.846 175.740 C 13.730 176.062,14.069 175.595,13.834 174.377 C 13.468 172.477,11.479 171.731,9.239 172.655 M68.996 179.008 C 67.687 181.454,64.679 181.285,64.188 178.739 C 63.940 177.451,64.521 177.000,66.427 177.000 C 68.167 177.000,69.038 176.433,69.116 175.250 C 69.222 173.650,69.270 173.645,69.679 175.198 C 69.925 176.131,69.618 177.846,68.996 179.008 M37.654 180.019 C 38.119 180.465,39.625 181.051,41.000 181.321 C 42.375 181.590,41.250 181.741,38.500 181.655 C 35.750 181.570,33.120 181.050,32.656 180.500 C 32.171 179.926,32.069 180.293,32.417 181.361 C 32.873 182.762,32.636 183.074,31.459 182.623 C 30.597 182.292,30.159 182.448,30.482 182.971 C 31.371 184.410,28.829 187.871,27.310 187.289 C 26.385 186.934,26.181 187.308,26.643 188.512 C 27.065 189.613,26.708 190.584,25.667 191.167 C 24.764 191.672,23.495 193.079,22.849 194.293 C 21.762 196.332,21.807 196.389,23.435 195.045 C 24.405 194.245,27.159 191.042,29.557 187.926 C 32.963 183.499,34.417 182.336,36.208 182.602 C 43.099 183.625,47.893 183.622,47.390 182.596 C 47.094 181.993,47.560 182.374,48.426 183.441 C 50.439 185.923,50.426 187.623,48.389 188.404 C 47.236 188.847,46.942 188.593,47.357 187.511 C 47.676 186.680,47.501 186.000,46.969 186.000 C 46.436 186.000,46.000 186.852,46.000 187.893 C 46.000 190.232,48.774 191.432,50.627 189.895 C 52.332 188.480,52.431 183.384,50.773 182.360 C 48.991 181.258,36.650 179.056,37.654 180.019 M25.000 183.059 C 25.000 183.641,24.603 183.873,24.118 183.573 C 23.632 183.273,22.044 183.964,20.588 185.109 C 19.132 186.254,17.279 186.937,16.471 186.627 C 14.584 185.903,14.573 188.046,16.450 190.559 C 17.851 192.434,17.881 192.423,17.334 190.250 C 17.022 189.012,17.200 188.000,17.730 188.000 C 18.260 188.000,19.730 187.101,20.997 186.002 C 22.750 184.482,23.623 184.272,24.650 185.125 C 25.711 186.005,26.000 185.791,26.000 184.122 C 26.000 182.955,25.775 182.000,25.500 182.000 C 25.225 182.000,25.000 182.477,25.000 183.059 M61.203 191.429 C 56.484 194.766,55.885 195.716,60.097 193.187 C 62.075 191.999,64.059 191.358,64.507 191.763 C 64.954 192.168,65.021 191.976,64.654 191.335 C 64.287 190.695,64.553 189.943,65.244 189.664 C 65.935 189.386,66.050 189.144,65.500 189.128 C 64.950 189.112,63.016 190.147,61.203 191.429 M18.015 195.050 C 18.000 197.533,19.587 200.000,21.200 200.000 C 21.640 200.000,22.000 199.339,22.000 198.531 C 22.000 197.569,21.423 197.284,20.326 197.705 C 19.109 198.172,18.811 197.934,19.234 196.833 C 19.553 196.000,19.413 194.684,18.923 193.909 C 18.264 192.868,18.027 193.166,18.015 195.050 M0.758 197.515 C 1.022 198.898,1.683 200.304,2.227 200.640 C 2.844 201.022,2.937 200.360,2.474 198.875 C 1.739 196.515,1.748 196.512,3.867 198.405 C 5.040 199.453,6.000 200.840,6.000 201.488 C 6.000 202.136,6.675 202.667,7.500 202.667 C 9.497 202.667,9.475 202.611,5.896 198.535 C 2.204 194.329,0.068 193.905,0.758 197.515 M68.329 196.458 C 66.585 197.216,64.672 198.744,64.079 199.853 C 62.188 203.387,62.914 203.526,65.750 200.173 C 67.889 197.645,69.333 196.895,72.248 196.799 C 75.890 196.680,83.965 199.741,83.989 201.250 C 83.995 201.662,84.477 202.000,85.059 202.000 C 87.273 202.000,84.555 199.702,79.627 197.407 C 73.731 194.661,72.664 194.572,68.329 196.458 " stroke="black" fill="none" /></svg>